<svg xmlns="http://www.w3.org/2000/svg" version="1.1" xmlns:xlink="http://www.w3.org/1999/xlink" xmlns:svgjs="http://svgjs.dev/svgjs" width="1440" height="560" preserveAspectRatio="none" viewBox="0 0 1440 560"><g clip-path="url(&quot;#SvgjsClipPath1000&quot;)" fill="none"><rect width="1440" height="560" x="0" y="0" fill="#0e2a47"></rect><circle r="93.335" cx="-70.99" cy="55.32" stroke="#365aa3" stroke-opacity="0.25" stroke-width="2"></circle><circle r="93.335" cx="455.56" cy="400.1" stroke="#365aa3" stroke-opacity="0.25" stroke-width="2"></circle><circle r="93.335" cx="747.01" cy="733.31" stroke="#365aa3" stroke-opacity="0.25" stroke-width="2"></circle><circle r="90.47" cx="728.14" cy="332.13" stroke="#365aa3" stroke-opacity="0.25" stroke-width="2"></circle><circle r="56.655" cx="958.42" cy="110.93" stroke="#365aa3" stroke-opacity="0.25" stroke-width="2"></circle><circle r="137.37" cx="336.32" cy="46.97" stroke="#365aa3" stroke-opacity="0.25" stroke-width="2"></circle><circle r="73.655" cx="652.67" cy="386.76" stroke="#365aa3" stroke-opacity="0.25" stroke-width="2"></circle><circle r="64.58" cx="177.99" cy="513.98" stroke="#365aa3" stroke-opacity="0.25" stroke-width="2"></circle><circle r="164.345" cx="1237.02" cy="328.46" stroke="#365aa3" stroke-opacity="0.25" stroke-width="2"></circle><circle r="170.04" cx="632.81" cy="545.31" stroke="#365aa3" stroke-opacity="0.25" stroke-width="2"></circle><circle r="130.92" cx="1196.26" cy="549.16" stroke="#365aa3" stroke-opacity="0.25" stroke-width="2"></circle><circle r="108.795" cx="921.94" cy="313.74" stroke="#365aa3" stroke-opacity="0.25" stroke-width="2"></circle><circle r="167.875" cx="304.07" cy="452.7" stroke="#365aa3" stroke-opacity="0.25" stroke-width="2"></circle><circle r="81.565" cx="736.76" cy="240.99" stroke="#365aa3" stroke-opacity="0.25" stroke-width="2"></circle><circle r="162.135" cx="1012.48" cy="489.52" stroke="#365aa3" stroke-opacity="0.25" stroke-width="2"></circle><circle r="142.155" cx="518.69" cy="343.14" stroke="#365aa3" stroke-opacity="0.25" stroke-width="2"></circle><circle r="59.8" cx="444.51" cy="396.3" stroke="#365aa3" stroke-opacity="0.25" stroke-width="2"></circle><circle r="157.96" cx="190.69" cy="31.4" stroke="#365aa3" stroke-opacity="0.25" stroke-width="2"></circle><circle r="62.515" cx="1417.64" cy="169.31" stroke="#365aa3" stroke-opacity="0.25" stroke-width="2"></circle><circle r="105.28" cx="875.43" cy="169.61" stroke="#365aa3" stroke-opacity="0.25" stroke-width="2"></circle><circle r="125.67" cx="819.02" cy="526.82" stroke="#365aa3" stroke-opacity="0.25" stroke-width="2"></circle><circle r="144.965" cx="991.5" cy="24.24" stroke="#365aa3" stroke-opacity="0.25" stroke-width="2"></circle><circle r="147.965" cx="21.7" cy="398.55" stroke="#365aa3" stroke-opacity="0.25" stroke-width="2"></circle><circle r="112.535" cx="1030.06" cy="405.18" stroke="#365aa3" stroke-opacity="0.25" stroke-width="2"></circle><circle r="159.68" cx="961.15" cy="54.07" stroke="#365aa3" stroke-opacity="0.25" stroke-width="2"></circle><circle r="77.72" cx="682.96" cy="209.9" stroke="#365aa3" stroke-opacity="0.25" stroke-width="2"></circle><circle r="107.54" cx="996.31" cy="154.26" stroke="#365aa3" stroke-opacity="0.25" stroke-width="2"></circle><circle r="86.105" cx="958.2" cy="53.01" stroke="#365aa3" stroke-opacity="0.25" stroke-width="2"></circle><circle r="49.005" cx="347.58" cy="199.3" stroke="#365aa3" stroke-opacity="0.25" stroke-width="2"></circle><circle r="50.375" cx="159.19" cy="25.35" stroke="#365aa3" stroke-opacity="0.25" stroke-width="2"></circle><circle r="50.79" cx="1048.61" cy="386.61" stroke="#365aa3" stroke-opacity="0.25" stroke-width="2"></circle><circle r="50.98" cx="960.63" cy="525.37" stroke="#365aa3" stroke-opacity="0.25" stroke-width="2"></circle><circle r="165.345" cx="932.01" cy="423.63" stroke="#365aa3" stroke-opacity="0.25" stroke-width="2"></circle><circle r="96.53" cx="1130.8" cy="351.11" stroke="#365aa3" stroke-opacity="0.25" stroke-width="2"></circle><circle r="125.22" cx="475.07" cy="193.74" stroke="#365aa3" stroke-opacity="0.25" stroke-width="2"></circle><circle r="144.84" cx="74.1" cy="45.33" stroke="#365aa3" stroke-opacity="0.25" stroke-width="2"></circle><circle r="127.38" cx="12.42" cy="514.73" stroke="#365aa3" stroke-opacity="0.25" stroke-width="2"></circle><circle r="177.46" cx="297.17" cy="406.43" stroke="#365aa3" stroke-opacity="0.25" stroke-width="2"></circle><circle r="172.755" cx="1105.97" cy="444.42" stroke="#365aa3" stroke-opacity="0.25" stroke-width="2"></circle><circle r="87.355" cx="1262.71" cy="175.21" stroke="#365aa3" stroke-opacity="0.25" stroke-width="2"></circle></g><defs><clipPath id="SvgjsClipPath1000"><rect width="1440" height="560" x="0" y="0"></rect></clipPath></defs></svg>