<svg xmlns="http://www.w3.org/2000/svg" version="1.1" xmlns:xlink="http://www.w3.org/1999/xlink" xmlns:svgjs="http://svgjs.dev/svgjs" width="1440" height="560" preserveAspectRatio="none" viewBox="0 0 1440 560"><g mask="url(&quot;#SvgjsMask1000&quot;)" fill="none"><rect width="1440" height="560" x="0" y="0" fill="#0e2a47"></rect><path d="M177.63 620.8C335.5 585.69 390.67 176.9 641.16 169.55 891.65 162.2 872.92 239.55 1104.68 239.55 1336.45 239.55 1451.01 169.75 1568.21 169.55" stroke="rgba(51,121,194,0.58)" stroke-width="2"></path><path d="M337.11 651.81C527.4 609.91 599.12 115.86 896.98 109.58 1194.83 103.3 1312.9 243.04 1456.84 243.98" stroke="rgba(51,121,194,0.58)" stroke-width="2"></path><path d="M682.95 649.22C762.06 648.97 747.8 595.58 994.07 591.35 1240.34 587.12 1448.01 338.77 1616.3 333.75" stroke="rgba(51,121,194,0.58)" stroke-width="2"></path><path d="M888.27 602.52C1019.71 583.02 1058.55 292.56 1303.62 270.89 1548.68 249.22 1604.24 79.73 1718.96 74.89" stroke="rgba(51,121,194,0.58)" stroke-width="2"></path><path d="M50.03 583.61C203.88 557.17 272.8 182.43 524.36 177.51 775.92 172.59 761.52 247.51 998.68 247.51 1235.85 247.51 1353.14 177.7 1473.01 177.51" stroke="rgba(51,121,194,0.58)" stroke-width="2"></path></g><defs><mask id="SvgjsMask1000"><rect width="1440" height="560" fill="#ffffff"></rect></mask></defs></svg>