<svg xmlns="http://www.w3.org/2000/svg" version="1.1" xmlns:xlink="http://www.w3.org/1999/xlink" xmlns:svgjs="http://svgjs.dev/svgjs" width="1920" height="1080" preserveAspectRatio="none" viewBox="0 0 1920 1080"><g mask="url(&quot;#SvgjsMask1034&quot;)" fill="none"><rect width="1920" height="1080" x="0" y="0" fill="url(&quot;#SvgjsLinearGradient1035&quot;)"></rect><path d="M1920 0L1565.29 0L1920 102.98z" fill="rgba(255, 255, 255, .1)"></path><path d="M1565.29 0L1920 102.98L1920 490.46000000000004L1005.4599999999999 0z" fill="rgba(255, 255, 255, .075)"></path><path d="M1005.46 0L1920 490.46000000000004L1920 604.96L770.76 0z" fill="rgba(255, 255, 255, .05)"></path><path d="M770.76 0L1920 604.96L1920 852.72L756.12 0z" fill="rgba(255, 255, 255, .025)"></path><path d="M0 1080L769.49 1080L0 975.23z" fill="rgba(0, 0, 0, .1)"></path><path d="M0 975.23L769.49 1080L971.07 1080L0 732.49z" fill="rgba(0, 0, 0, .075)"></path><path d="M0 732.49L971.07 1080L1131.29 1080L0 673.96z" fill="rgba(0, 0, 0, .05)"></path><path d="M0 673.96L1131.29 1080L1575.6299999999999 1080L0 593.07z" fill="rgba(0, 0, 0, .025)"></path></g><defs><mask id="SvgjsMask1034"><rect width="1920" height="1080" fill="#ffffff"></rect></mask><linearGradient x1="10.94%" y1="-19.44%" x2="89.06%" y2="119.44%" gradientUnits="userSpaceOnUse" id="SvgjsLinearGradient1035"><stop stop-color="#0e2a47" offset="0"></stop><stop stop-color="#00459e" offset="1"></stop></linearGradient></defs></svg>